<svg width="358" height="250" viewBox="0 0 358 250" fill="none" xmlns="http://www.w3.org/2000/svg">
<g filter="url(#filter0_dddddd_5_13275)">
<ellipse cx="121.5" cy="132.952" rx="63.5" ry="59.4406" fill="#01B6EA" fill-opacity="0.49"/>
</g>
<path d="M30 33.6342H174.484V230.656H30V33.6342Z" fill="black"/>
<path d="M198.554 238.575H54.0702V68.1244L75.4312 41.5534H198.554V238.575Z" fill="black"/>
<path d="M81.6832 63.6438H160.25V66.7073H81.6832V63.6438ZM164.293 63.6438H177.214V66.7073H164.293V63.6438ZM81.6832 98.0923H108.004V101.156H81.6832V98.0923ZM111.088 98.0923H177.235V101.156H111.088V98.0923ZM81.6832 80.8785H108.004V83.9419H81.6832V80.8785ZM113.839 80.8785H142.078V83.9419H113.839V80.8785ZM144.87 80.8785H177.214V83.9419H144.87V80.8785Z" fill="#00B6E9"/>
<path d="M177.218 135.601H98.6511V132.537H177.218V135.601Z" fill="#00B6E9"/>
<path d="M94.6287 152.814H81.7079V149.75H94.6287V152.814Z" fill="#00B6E9"/>
<path d="M114.05 118.367H81.7065V115.304H114.05V118.367Z" fill="#00B6E9"/>
<path d="M94.1873 136.104H81.2665V133.041H94.1873V136.104Z" fill="#00B6E9"/>
<path d="M195.678 118.182L117.111 118.182V115.119L195.678 115.119V118.182Z" fill="#00B6E9"/>
<path d="M159.159 152.36H132.838V149.296H159.159V152.36Z" fill="#00B6E9"/>
<path d="M127.01 152.36H98.772V149.296H127.01V152.36Z" fill="#00B6E9"/>
<g clip-path="url(#clip0_5_13275)">
<path opacity="0.1" d="M203.196 197.85C263.629 197.85 312.619 189.927 312.619 180.154C312.619 170.38 263.629 162.457 203.196 162.457C142.764 162.457 93.774 170.38 93.774 180.154C93.774 189.927 142.764 197.85 203.196 197.85Z" fill="black"/>
<path d="M163.498 153.774L162.527 151.832C162.564 151.813 165.11 150.549 168.005 148.827C167.62 148.351 167.29 147.82 166.997 147.252C164.542 142.471 166.539 140.089 167.51 139.301C169.892 137.341 174.361 137.579 177.256 139.851C178.025 140.455 178.392 141.298 178.3 142.196C178.172 143.387 177.329 145.383 171.632 149.121C173.134 150 174.819 150.275 176.248 150.33C180.682 150.476 184.73 148.534 185.371 147.472L187.295 144.248L187.387 148.003C187.405 148.791 187.716 149.853 188.064 149.963C188.119 149.982 189.237 150.293 192.406 146.263L194.11 147.6C191.27 151.209 189.127 152.62 187.368 152.033C186.434 151.722 185.903 150.916 185.591 150.128C183.448 151.52 179.766 152.638 176.157 152.528C173.555 152.436 171.339 151.704 169.617 150.403C166.466 152.29 163.626 153.7 163.498 153.774ZM171.65 140.126C170.569 140.126 169.562 140.4 168.884 140.968C167.254 142.306 168.224 144.852 168.939 146.244C169.214 146.776 169.525 147.252 169.873 147.655C175.497 144.064 176.084 142.397 176.138 141.958C176.157 141.866 176.157 141.738 175.919 141.536C174.728 140.62 173.116 140.126 171.65 140.126Z" fill="#00B6E9"/>
<path d="M251.688 41.86C251.688 41.86 246.522 35.9794 248.171 32.1324C249.819 28.2853 255.132 28.8348 255.865 27.3693C256.598 25.9037 265.592 25.5923 266.288 29.2562C266.985 32.9201 272.242 41.3104 264.585 44.1316C256.927 46.9528 251.688 41.86 251.688 41.86Z" fill="#0B4870"/>
<path d="M258.778 58.9154C258.778 58.9154 260.298 77.6013 258.484 82.6391C256.671 87.677 250.625 106.473 250.625 106.473L247.071 104.769C247.071 104.769 250.003 89.1425 251.834 80.2393C253.666 71.3177 254.985 56.6438 257.477 51.0197L258.778 58.9154Z" fill="#DBA17B"/>
<path d="M261.709 94.0338C261.709 94.0338 259.712 118.271 259.712 122.484V171.599H265.025C265.025 171.599 270.704 132.743 270.887 127.43C271.07 122.118 275.705 99.7495 275.705 99.7495C275.705 99.7495 279.827 79.5065 261.709 94.0338Z" fill="#FFBE55"/>
<path d="M275.1 96.7818C275.1 96.7818 277.006 124.701 278.105 129.555C279.204 134.41 295.325 171.599 295.325 171.599H300.454C300.454 171.599 291.24 134.318 289.041 130.197C286.843 126.075 289.884 92.6965 289.884 92.6965L275.1 96.7818Z" fill="#FFBE55"/>
<path d="M262.845 46.1101C262.845 46.1101 283.436 29.5493 291.624 102.497H260.463C260.463 102.497 263.467 95.6093 262.167 86.4679C259.712 69.2293 251.45 47.4108 262.845 46.1101Z" fill="#2A94F4"/>
<path d="M307.361 65.0891L310.951 70.2369L233.68 127.98L226.425 117.556L307.361 65.0891Z" fill="#0B4870"/>
<path d="M233.881 127.833L226.077 133.274C223.897 134.795 220.893 134.263 219.372 132.083L217.614 129.555C216.093 127.375 216.624 124.371 218.804 122.85L226.609 117.41L233.881 127.833Z" fill="#0E538C"/>
<path d="M205.853 131.241L196.052 145.915L203.654 140.62C204.039 139.814 204.772 138.532 206.036 137.653C207.996 136.279 209.975 135.729 210.451 136.407C210.927 137.085 209.718 138.752 207.758 140.126C206.494 141.005 205.047 141.261 204.149 141.335L196.546 146.629L213.693 142.526C213.693 142.526 222.23 133.329 219.83 129.867C217.449 126.404 205.853 131.241 205.853 131.241Z" fill="#00B6E9"/>
<path d="M273.103 59.062L281.787 54.9034C281.787 54.9034 292.962 72.6367 294.372 80.221C295.783 87.8052 273.799 99.8778 273.799 99.8778L272.426 98.5404C272.426 98.5404 285.213 83.8849 288.62 81.0637L273.103 59.062ZM272.426 98.5404C272.426 98.5404 271.766 98.174 269.934 98.5404C268.102 98.9068 265.904 101.343 265.904 101.343C265.904 101.343 264.658 102.168 269.201 101.105C269.201 101.105 264.31 105.099 262.478 106.473C260.646 107.847 267.662 109.679 273.799 99.8778L272.426 98.5404Z" fill="#DBA17B"/>
<path d="M275.668 64.338L284.37 58.3292C284.37 58.3292 278.874 44.2232 267.919 44.498C266.069 44.553 263.303 49.2428 275.668 64.338ZM253.227 67.379L260.884 68.7164L259.675 47.3192C259.675 47.3192 256.121 49.0596 255.279 53.0715C254.399 57.1201 253.227 67.379 253.227 67.379Z" fill="#2A94F4"/>
<path d="M261.306 50.3969C261.306 50.3969 266.307 49.5359 265.757 46.6047L262.57 40.0097L258.411 42.5195L261.306 50.3969Z" fill="#D19574"/>
<path d="M250.461 37.1519C250.625 43.0874 255.865 47.8139 259.455 47.3742C264.365 46.7696 265.647 42.7577 265.354 40.1746C265.354 40.1746 266.398 38.8739 266.289 37.0786C266.124 34.4223 264.438 34.6421 264.438 36.2909C264.438 39.0755 263.962 36.1627 263.596 34.001C263.229 31.8393 261.251 38.7823 257.788 37.8847C250.644 36.0711 250.296 31.2347 250.461 37.1519Z" fill="#DBA17B"/>
<path d="M259.73 171.599C259.73 171.599 259.217 173.687 256.982 174.035C253.282 174.621 249.526 174.878 249.05 177.223C248.555 179.567 249.05 179.055 249.05 179.055H260.664C260.664 179.055 262.496 177.772 263.962 179.055H266.765C266.765 179.055 266.16 174.456 266.032 173.724C265.904 172.972 265.061 171.599 265.061 171.599H259.73ZM295.215 171.599C295.215 171.599 296.131 173.302 292.467 174.035C288.803 174.786 285.011 174.878 284.535 177.223C284.04 179.567 284.535 179.055 284.535 179.055H296.149C296.149 179.055 297.981 177.772 299.447 179.055H302.25C302.25 179.055 301.645 174.456 301.517 173.724C301.389 172.972 300.546 171.599 300.546 171.599H295.215Z" fill="#0B4870"/>
</g>
<defs>
<filter id="filter0_dddddd_5_13275" x="0.392792" y="15.9042" width="242.214" height="234.096" filterUnits="userSpaceOnUse" color-interpolation-filters="sRGB">
<feFlood flood-opacity="0" result="BackgroundImageFix"/>
<feColorMatrix in="SourceAlpha" type="matrix" values="0 0 0 0 0 0 0 0 0 0 0 0 0 0 0 0 0 0 127 0" result="hardAlpha"/>
<feOffset/>
<feGaussianBlur stdDeviation="0.6858"/>
<feColorMatrix type="matrix" values="0 0 0 0 0.00392157 0 0 0 0 0.713726 0 0 0 0 0.917647 0 0 0 1 0"/>
<feBlend mode="normal" in2="BackgroundImageFix" result="effect1_dropShadow_5_13275"/>
<feColorMatrix in="SourceAlpha" type="matrix" values="0 0 0 0 0 0 0 0 0 0 0 0 0 0 0 0 0 0 127 0" result="hardAlpha"/>
<feOffset/>
<feGaussianBlur stdDeviation="1.3716"/>
<feColorMatrix type="matrix" values="0 0 0 0 0.00392157 0 0 0 0 0.713726 0 0 0 0 0.917647 0 0 0 1 0"/>
<feBlend mode="normal" in2="effect1_dropShadow_5_13275" result="effect2_dropShadow_5_13275"/>
<feColorMatrix in="SourceAlpha" type="matrix" values="0 0 0 0 0 0 0 0 0 0 0 0 0 0 0 0 0 0 127 0" result="hardAlpha"/>
<feOffset/>
<feGaussianBlur stdDeviation="4.8006"/>
<feColorMatrix type="matrix" values="0 0 0 0 0.00392157 0 0 0 0 0.713726 0 0 0 0 0.917647 0 0 0 1 0"/>
<feBlend mode="normal" in2="effect2_dropShadow_5_13275" result="effect3_dropShadow_5_13275"/>
<feColorMatrix in="SourceAlpha" type="matrix" values="0 0 0 0 0 0 0 0 0 0 0 0 0 0 0 0 0 0 127 0" result="hardAlpha"/>
<feOffset/>
<feGaussianBlur stdDeviation="9.6012"/>
<feColorMatrix type="matrix" values="0 0 0 0 0.00392157 0 0 0 0 0.713726 0 0 0 0 0.917647 0 0 0 1 0"/>
<feBlend mode="normal" in2="effect3_dropShadow_5_13275" result="effect4_dropShadow_5_13275"/>
<feColorMatrix in="SourceAlpha" type="matrix" values="0 0 0 0 0 0 0 0 0 0 0 0 0 0 0 0 0 0 127 0" result="hardAlpha"/>
<feOffset/>
<feGaussianBlur stdDeviation="16.4592"/>
<feColorMatrix type="matrix" values="0 0 0 0 0.00392157 0 0 0 0 0.713726 0 0 0 0 0.917647 0 0 0 1 0"/>
<feBlend mode="normal" in2="effect4_dropShadow_5_13275" result="effect5_dropShadow_5_13275"/>
<feColorMatrix in="SourceAlpha" type="matrix" values="0 0 0 0 0 0 0 0 0 0 0 0 0 0 0 0 0 0 127 0" result="hardAlpha"/>
<feOffset/>
<feGaussianBlur stdDeviation="28.8036"/>
<feColorMatrix type="matrix" values="0 0 0 0 0.00392157 0 0 0 0 0.713726 0 0 0 0 0.917647 0 0 0 1 0"/>
<feBlend mode="normal" in2="effect5_dropShadow_5_13275" result="effect6_dropShadow_5_13275"/>
<feBlend mode="normal" in="SourceGraphic" in2="effect6_dropShadow_5_13275" result="shape"/>
</filter>
<clipPath id="clip0_5_13275">
<rect width="351.734" height="197.85" fill="white" transform="translate(38.266 -1.52588e-05)"/>
</clipPath>
</defs>
</svg>
